# xmcd
#
# Track frame offsets:
#	150
#	16141
#	35318
#	54836
#	68680
#	90465
#	103935
#	118790
#	135197
#	156707
#	176533
#	191723
#	204445
#
# Disc length: 2945 seconds
#
# Revision: 1
# Processed by: cddbd v1.5.2PL0 Copyright (c) Steve Scherf et al.
# Submitted via: audiograbber 1.83.01
#
DISCID=a70b7f0d
DTITLE=Various Artist - The Imus Ranch Record
DYEAR=2008
DGENRE=Country
TTITLE0=Patty Loveless - Silver Springs
TTITLE1=Delbert McClinton - Lay Down Sally
TTITLE2=Lucindia Williams - Mamas Don't Let Your Babies Grow Up To Be Cowboys
TTITLE3=Levon Helms - You Better Move On
TTITLE4=Raul Malo - Life Has Its Little Ups And Downs
TTITLE5=Little Richard - I Ain't Never
TTITLE6=Randy Travis - I Don't See Me In Your Eyes Anymore
TTITLE7=Big and Rich - Fight For Your Right To Party
TTITLE8=Willie Nelson - What A Difference A Day Makes
TTITLE9=Dwight Yoakam - Give Back The Key To My Heart
TTITLE10=Bekka Bramlett - What Happened
TTITLE11=John Hiatt - Welfare Music
TTITLE12=Vince Gill - A Satisfied Mind
EXTD=
EXTT0=
EXTT1=
EXTT2=
EXTT3=
EXTT4=
EXTT5=
EXTT6=
EXTT7=
EXTT8=
EXTT9=
EXTT10=
EXTT11=
EXTT12=
PLAYORDER=
